<svg width="100" height="50" viewBox="0 0 86 30" fill="none" xmlns="http://www.w3.org/2000/svg">
<circle cx="12.5" cy="7.5" r="7" fill="#D9D9D9" stroke="black"/>
<path d="M61.5 18.5C61.5 21.4397 59.5816 24.178 56.3175 26.2071C53.0608 28.2315 48.5304 29.5 43.5 29.5C38.4696 29.5 33.9392 28.2315 30.6825 26.2071C27.4184 24.178 25.5 21.4397 25.5 18.5C25.5 15.5603 27.4184 12.822 30.6825 10.7929C33.9392 8.76847 38.4696 7.5 43.5 7.5C48.5304 7.5 53.0608 8.76847 56.3175 10.7929C59.5816 12.822 61.5 15.5603 61.5 18.5Z" fill="#D9D9D9" stroke="black"/>
<path d="M10 20C14 0 31 10.8664 32.5236 14.1117C32.1236 32.9117 1.02365 24.6117 2.02361 24.1117C3.02356 23.6117 10 20 10 20Z" fill="#D9D9D9"/>
<path d="M62 18C62.3333 21.1667 64.7 25.8 71.5 19C78.3 12.2 83.6667 19.1667 85.5 23.5M32.5236 14.1117C31 10.8664 14 0 10 20C10 20 3.02356 23.6117 2.02361 24.1117C1.02365 24.6117 32.1236 32.9117 32.5236 14.1117Z" stroke="#0D0D0C"/>
<circle cx="34.5" cy="7.5" r="7" fill="#D9D9D9" stroke="black"/>
<circle cx="2" cy="24" r="1.5" fill="black" stroke="black"/>
<circle cx="25" cy="18" r="1" fill="#111010"/>
<circle cx="14" cy="18" r="1" fill="#111010"/>
<path d="M13.5 21.5C13.7354 21.7354 14.1705 22.0374 14.7319 22.2075M21 21.5C20.8251 21.5875 19 22.5 16.4833 22.2075M14.7319 22.2075V24H16.5L16.4833 22.2075M14.7319 22.2075C15.2325 22.3591 15.8335 22.406 16.4833 22.2075M16.4833 22.2075H18.5V24H17" stroke="#0D0D0C"/>
</svg>
