<svg width="1231" height="928" viewBox="0 0 1231 928" fill="none" xmlns="http://www.w3.org/2000/svg">
<path d="M777.413 304L700.851 46.106C702.53 32.1846 711.933 8.51822 736.11 25.2239C760.287 41.9296 847.921 108.309 883.851 136.5C803.261 174.923 776.069 262.236 777.413 304Z" fill="#B38E6E"/>
<path d="M1046.85 124L1100.32 12.6946C1107.71 1.55746 1126.31 -11.5287 1141.62 25.2239C1156.94 61.9764 1160.55 152.388 1155.85 194.5C1141.41 172.574 1087.95 133.188 1046.85 124Z" fill="#B28E6E"/>
<path d="M777.413 304L700.851 46.106C702.53 32.1846 711.933 8.51822 736.11 25.2239C760.287 41.9296 847.921 108.309 883.851 136.5C803.261 174.923 776.069 262.236 777.413 304Z" stroke="#B28E6E"/>
<path d="M1046.85 124L1100.32 12.6946C1107.71 1.55746 1126.31 -11.5287 1141.62 25.2239C1156.94 61.9764 1160.55 152.388 1155.85 194.5C1141.41 172.574 1087.95 133.188 1046.85 124Z" stroke="#B28E6E"/>
<path d="M1132.85 32C1124.05 7.19998 1114.52 16.3333 1110.85 24L1074.85 117.5C1094.05 117.5 1130.85 146.5 1146.85 161C1145.85 128.333 1141.65 56.8 1132.85 32Z" fill="#F7BCBD"/>
<path d="M714.851 57C709.518 43 706.651 20 737.851 40C769.051 60 811.518 115 828.851 140C797.651 162.4 776.518 216.667 769.851 241L714.851 57Z" fill="#F7BCBD"/>
<path d="M1132.85 32C1124.05 7.19998 1114.52 16.3333 1110.85 24L1074.85 117.5C1094.05 117.5 1130.85 146.5 1146.85 161C1145.85 128.333 1141.65 56.8 1132.85 32Z" stroke="#B28E6E"/>
<path d="M714.851 57C709.518 43 706.651 20 737.851 40C769.051 60 811.518 115 828.851 140C797.651 162.4 776.518 216.667 769.851 241L714.851 57Z" stroke="#B28E6E"/>
<path d="M1187.35 296.5C1187.35 396.406 1095.41 477.5 981.851 477.5C868.296 477.5 776.351 396.406 776.351 296.5C776.351 196.594 868.296 115.5 981.851 115.5C1095.41 115.5 1187.35 196.594 1187.35 296.5Z" fill="#FFF1E4" stroke="#B28E6E"/>
<path d="M812.851 402C737.259 291.625 949.851 203.333 1008.85 196H1040.85C1242.45 230.4 1188.13 361.857 1131.85 422C1075.58 482.143 888.443 512.375 812.851 402Z" fill="#EEDCCB" stroke="#EEDCCB"/>
<path d="M927.851 139.5C941.915 131.197 937.374 125.076 927.851 123C830.351 134.5 766.851 240 774.851 302C779.321 336.641 794.329 378.427 803.851 385C766.495 186.765 910.272 149.879 927.851 139.5Z" fill="#B28E6E" stroke="#B28E6E"/>
<path d="M1027.59 129.14C1013.58 122.676 1018.51 122.02 1024.35 120C1107.61 131.312 1172.85 199 1172.85 231C1139.98 181 1045.11 137.22 1027.59 129.14Z" fill="#B28E6E" stroke="#B28E6E"/>
<path d="M1027.85 201L994.851 186H1045.85L1027.85 201Z" fill="#F7BCBD" stroke="#F7BCBD"/>
<ellipse cx="1023.85" cy="316.5" rx="134" ry="109.5" fill="#E68888"/>
<path d="M907.852 368C946.852 304.667 1049.85 212.6 1149.85 351C1087.35 474 936.852 427 907.852 368Z" fill="#CF6969" stroke="#CF6969"/>
<path d="M1056.85 170C1065.18 160 1089.85 147.4 1121.85 177C1153.85 206.6 1091.85 184.667 1056.85 170Z" fill="#161616"/>
<path d="M949.852 183C933.852 174 898.052 165.4 882.852 203C867.652 240.6 921.185 205.333 949.852 183Z" fill="#161616"/>
<path d="M1056.85 170C1065.18 160 1089.85 147.4 1121.85 177C1153.85 206.6 1091.85 184.667 1056.85 170Z" stroke="#161616"/>
<path d="M949.852 183C933.852 174 898.052 165.4 882.852 203C867.652 240.6 921.185 205.333 949.852 183Z" stroke="#161616"/>
<ellipse cx="928.852" cy="181.5" rx="9" ry="7.5" fill="white"/>
<ellipse cx="1087.85" cy="165.5" rx="9" ry="7.5" fill="white"/>
<path d="M687.817 779C643.012 682.411 722.817 489.333 797.817 378C838.15 442 961.617 539.6 1132.82 418C1201.82 499 1237.35 745.302 1223.82 810C1189.63 973.401 775.368 967.742 687.817 779Z" fill="#FFF1E4" stroke="#B28E6E"/>
<path d="M1227.35 746.5C1258.32 907.887 1026.46 974.386 821.351 889C773.107 868.916 737.844 738.693 805.661 651.277C859.515 566.359 829.596 447.819 829.596 420C900.903 482.939 1007.61 504.419 1132.74 420C1199.77 472.641 1221.32 715.045 1227.35 746.5Z" fill="#EEDCCB" stroke="#EEDCCB"/>
<path d="M797.351 604C829.101 540.5 807.093 381.279 797.351 381C729.351 462 652.851 671 679.851 756C702.476 827.226 762.278 866.302 772.851 871C699.472 683.096 777.351 644 797.351 604Z" fill="#B28E6E" stroke="#B28E6E"/>
<path d="M781.351 515.723C765.351 479.323 745.351 473.584 738.851 476.75L729.851 496.75L781.351 515.723Z" fill="#9B7757" stroke="#B28E6E"/>
<path d="M751.351 589.723C735.351 553.323 715.351 547.584 708.851 550.75L699.851 575L751.351 589.723Z" fill="#9B7757" stroke="#B28E6E"/>
<path d="M733.851 675.5C717.851 639.1 690.851 629.333 684.351 632.5L679.351 657.5L733.851 675.5Z" fill="#9B7757" stroke="#B28E6E"/>
<path d="M162.413 304L85.8514 46.106C87.5304 32.1846 96.9326 8.51822 121.11 25.2239C145.287 41.9296 232.921 108.309 268.851 136.5C188.261 174.923 161.069 262.236 162.413 304Z" fill="#B38E6E"/>
<path d="M431.851 124L485.321 12.6946C492.708 1.55746 511.311 -11.5287 526.624 25.2239C541.936 61.9764 545.553 152.388 540.851 194.5C526.412 172.574 472.953 133.188 431.851 124Z" fill="#B28E6E"/>
<path d="M162.413 304L85.8514 46.106C87.5304 32.1846 96.9326 8.51822 121.11 25.2239C145.287 41.9296 232.921 108.309 268.851 136.5C188.261 174.923 161.069 262.236 162.413 304Z" stroke="#B28E6E"/>
<path d="M431.851 124L485.321 12.6946C492.708 1.55746 511.311 -11.5287 526.624 25.2239C541.936 61.9764 545.553 152.388 540.851 194.5C526.412 172.574 472.953 133.188 431.851 124Z" stroke="#B28E6E"/>
<path d="M517.851 32C509.051 7.19998 499.518 16.3333 495.851 24L459.851 117.5C479.051 117.5 515.851 146.5 531.851 161C530.851 128.333 526.651 56.8 517.851 32Z" fill="#F7BCBD"/>
<path d="M99.8515 57C94.5181 43 91.6515 20 122.851 40C154.051 60 196.518 115 213.851 140C182.651 162.4 161.518 216.667 154.851 241L99.8515 57Z" fill="#F7BCBD"/>
<path d="M517.851 32C509.051 7.19998 499.518 16.3333 495.851 24L459.851 117.5C479.051 117.5 515.851 146.5 531.851 161C530.851 128.333 526.651 56.8 517.851 32Z" stroke="#B28E6E"/>
<path d="M99.8515 57C94.5181 43 91.6515 20 122.851 40C154.051 60 196.518 115 213.851 140C182.651 162.4 161.518 216.667 154.851 241L99.8515 57Z" stroke="#B28E6E"/>
<path d="M572.351 296.5C572.351 396.406 480.407 477.5 366.851 477.5C253.295 477.5 161.351 396.406 161.351 296.5C161.351 196.594 253.295 115.5 366.851 115.5C480.407 115.5 572.351 196.594 572.351 296.5Z" fill="#FFF1E4" stroke="#B28E6E"/>
<path d="M521 415.5C428.5 486 298.43 506.887 197.564 399.518C164.617 346.575 330.581 267.071 398 234C412.116 227.076 412.5 224.094 428.5 230C577.5 285 596.5 336.5 521 415.5Z" fill="#EEDCCB" stroke="#EEDCCB"/>
<path d="M312.851 139.5C326.915 131.197 322.374 125.076 312.851 123C217.5 136.5 151.851 240 159.851 302C164.321 336.641 179.329 378.427 188.851 385C151.495 186.765 295.272 149.879 312.851 139.5Z" fill="#B28E6E" stroke="#B28E6E"/>
<path d="M412.589 129.14C398.575 122.676 403.512 122.02 409.351 120C492.611 131.312 557.851 199 557.851 231C524.981 181 430.107 137.22 412.589 129.14Z" fill="#B28E6E" stroke="#B28E6E"/>
<path d="M412.851 201L379.851 186H430.851L412.851 201Z" fill="#F7BCBD" stroke="#F7BCBD"/>
<path d="M413.5 202C405.167 220.667 353.3 259 290.5 257" stroke="#CF6969" stroke-width="4" stroke-linecap="round"/>
<path d="M413 202C421.333 220.667 471.2 238 534 236" stroke="#CF6969" stroke-width="4" stroke-linecap="round"/>
<path d="M441.852 170C450.185 160 474.852 147.4 506.852 177C538.852 206.6 476.852 184.667 441.852 170Z" fill="#161616"/>
<path d="M334.852 183C318.852 174 283.052 165.4 267.852 203C252.652 240.6 306.185 205.333 334.852 183Z" fill="#161616"/>
<path d="M441.852 170C450.185 160 474.852 147.4 506.852 177C538.852 206.6 476.852 184.667 441.852 170Z" stroke="#161616"/>
<path d="M334.852 183C318.852 174 283.052 165.4 267.852 203C252.652 240.6 306.185 205.333 334.852 183Z" stroke="#161616"/>
<ellipse cx="313.852" cy="181.5" rx="9" ry="7.5" fill="white"/>
<ellipse cx="472.852" cy="165.5" rx="9" ry="7.5" fill="white"/>
<path d="M72.8166 779C28.0119 682.411 107.817 489.333 182.817 378C223.15 442 346.617 539.6 517.817 418C586.817 499 622.353 745.302 608.817 810C574.631 973.401 160.368 967.742 72.8166 779Z" fill="#FFF1E4" stroke="#B28E6E"/>
<path d="M612.351 746.5C643.317 907.887 411.457 974.386 206.351 889C158.107 868.916 122.844 738.693 190.661 651.277C244.515 566.359 214.596 447.819 214.596 420C285.903 482.939 392.614 504.419 517.739 420C584.774 472.641 606.316 715.045 612.351 746.5Z" fill="#EEDCCB" stroke="#EEDCCB"/>
<path d="M182.351 604C214.101 540.5 192.093 381.279 182.351 381C114.351 462 37.8514 671 64.8513 756C87.4758 827.226 147.278 866.302 157.851 871C84.4716 683.096 162.351 644 182.351 604Z" fill="#B28E6E" stroke="#B28E6E"/>
<path d="M166.351 515.723C150.351 479.323 130.351 473.584 123.851 476.75L114.851 496.75L166.351 515.723Z" fill="#9B7757" stroke="#B28E6E"/>
<path d="M136.351 589.723C120.351 553.323 100.351 547.584 93.8514 550.75L84.8514 575L136.351 589.723Z" fill="#9B7757" stroke="#B28E6E"/>
<path d="M118.851 675.5C102.851 639.1 75.8514 629.333 69.3514 632.5L64.3514 657.5L118.851 675.5Z" fill="#9B7757" stroke="#B28E6E"/>
</svg>
