<svg width="616" height="928" viewBox="0 0 616 928" fill="none" xmlns="http://www.w3.org/2000/svg">
<path d="M162.413 304L85.8516 46.106C87.5305 32.1846 96.9328 8.51822 121.11 25.2239C145.287 41.9296 232.922 108.309 268.852 136.5C188.261 174.923 161.069 262.236 162.413 304Z" fill="#B38E6E"/>
<path d="M431.852 124L485.321 12.6946C492.708 1.55746 511.311 -11.5287 526.624 25.2239C541.936 61.9764 545.553 152.388 540.852 194.5C526.412 172.574 472.953 133.188 431.852 124Z" fill="#B28E6E"/>
<path d="M162.413 304L85.8516 46.106C87.5305 32.1846 96.9328 8.51822 121.11 25.2239C145.287 41.9296 232.922 108.309 268.852 136.5C188.261 174.923 161.069 262.236 162.413 304Z" stroke="#B28E6E"/>
<path d="M431.852 124L485.321 12.6946C492.708 1.55746 511.311 -11.5287 526.624 25.2239C541.936 61.9764 545.553 152.388 540.852 194.5C526.412 172.574 472.953 133.188 431.852 124Z" stroke="#B28E6E"/>
<path d="M517.852 32C509.052 7.19998 499.518 16.3333 495.852 24L459.852 117.5C479.052 117.5 515.852 146.5 531.852 161C530.852 128.333 526.652 56.8 517.852 32Z" fill="#F7BCBD"/>
<path d="M99.8516 57C94.5183 43 91.6516 20 122.852 40C154.052 60 196.518 115 213.852 140C182.652 162.4 161.518 216.667 154.852 241L99.8516 57Z" fill="#F7BCBD"/>
<path d="M517.852 32C509.052 7.19998 499.518 16.3333 495.852 24L459.852 117.5C479.052 117.5 515.852 146.5 531.852 161C530.852 128.333 526.652 56.8 517.852 32Z" stroke="#B28E6E"/>
<path d="M99.8516 57C94.5183 43 91.6516 20 122.852 40C154.052 60 196.518 115 213.852 140C182.652 162.4 161.518 216.667 154.852 241L99.8516 57Z" stroke="#B28E6E"/>
<path d="M572.351 296.5C572.351 396.406 480.407 477.5 366.851 477.5C253.295 477.5 161.351 396.406 161.351 296.5C161.351 196.594 253.295 115.5 366.851 115.5C480.407 115.5 572.351 196.594 572.351 296.5Z" fill="#FFF1E4" stroke="#B28E6E"/>
<path d="M197.851 402C122.259 291.625 334.851 203.333 393.851 196H425.851C627.451 230.4 573.127 361.857 516.852 422C460.576 482.143 273.443 512.375 197.851 402Z" fill="#EEDCCB" stroke="#EEDCCB"/>
<path d="M312.851 139.5C326.915 131.197 322.374 125.076 312.851 123C215.351 134.5 151.851 240 159.851 302C164.321 336.641 179.329 378.427 188.851 385C151.495 186.765 295.272 149.879 312.851 139.5Z" fill="#B28E6E" stroke="#B28E6E"/>
<path d="M412.589 129.14C398.575 122.676 403.512 122.02 409.351 120C492.611 131.312 557.851 199 557.851 231C524.981 181 430.107 137.22 412.589 129.14Z" fill="#B28E6E" stroke="#B28E6E"/>
<path d="M412.851 201L379.851 186H430.851L412.851 201Z" fill="#F7BCBD" stroke="#F7BCBD"/>
<ellipse cx="408.852" cy="316.5" rx="134" ry="109.5" fill="#E68888"/>
<path d="M292.852 368C331.852 304.667 434.852 212.6 534.852 351C472.352 474 321.852 427 292.852 368Z" fill="#CF6969" stroke="#CF6969"/>
<path d="M441.852 170C450.185 160 474.852 147.4 506.852 177C538.852 206.6 476.852 184.667 441.852 170Z" fill="#161616"/>
<path d="M334.852 183C318.852 174 283.052 165.4 267.852 203C252.652 240.6 306.185 205.333 334.852 183Z" fill="#161616"/>
<path d="M441.852 170C450.185 160 474.852 147.4 506.852 177C538.852 206.6 476.852 184.667 441.852 170Z" stroke="#161616"/>
<path d="M334.852 183C318.852 174 283.052 165.4 267.852 203C252.652 240.6 306.185 205.333 334.852 183Z" stroke="#161616"/>
<ellipse cx="313.852" cy="181.5" rx="9" ry="7.5" fill="white"/>
<ellipse cx="472.852" cy="165.5" rx="9" ry="7.5" fill="white"/>
<path d="M72.8167 779C28.0121 682.411 107.817 489.333 182.817 378C223.15 442 346.617 539.6 517.817 418C586.817 499 622.353 745.302 608.817 810C574.631 973.401 160.368 967.742 72.8167 779Z" fill="#FFF1E4" stroke="#B28E6E"/>
<path d="M612.352 746.5C643.317 907.887 411.457 974.386 206.352 889C158.107 868.916 122.844 738.693 190.661 651.277C244.515 566.359 214.596 447.819 214.596 420C285.903 482.939 392.614 504.419 517.739 420C584.774 472.641 606.316 715.045 612.352 746.5Z" fill="#EEDCCB" stroke="#EEDCCB"/>
<path d="M182.351 604C214.101 540.5 192.093 381.279 182.351 381C114.351 462 37.8514 671 64.8513 756C87.4758 827.226 147.278 866.302 157.851 871C84.4716 683.096 162.351 644 182.351 604Z" fill="#B28E6E" stroke="#B28E6E"/>
<path d="M166.352 515.723C150.352 479.323 130.352 473.584 123.852 476.75L114.852 496.75L166.352 515.723Z" fill="#9B7757" stroke="#B28E6E"/>
<path d="M136.352 589.723C120.352 553.323 100.352 547.584 93.8516 550.75L84.8516 575L136.352 589.723Z" fill="#9B7757" stroke="#B28E6E"/>
<path d="M118.852 675.5C102.852 639.1 75.8516 629.333 69.3516 632.5L64.3516 657.5L118.852 675.5Z" fill="#9B7757" stroke="#B28E6E"/>
</svg>
